{
  "source": "C:\\Users\\Peter\\Desktop\\stuff\\MIUN\\quantitative_research\\video_compression\\videos\\BVI-HD\\BVI-HD_CDVL_videos\\ORIG\\PlasmaAveragePan_1920x1080_60fps.mp4",
  "output": "C:\\Users\\Peter\\Desktop\\stuff\\MIUN\\quantitative_research\\video_compression\\compressed_videos\\BVI-HD\\av1\\2.5\\PlasmaAveragePan_1920x1080_60fps_av1.mkv",
  "codec": "av1",
  "ok": "Input #0, mov,mp4,m4a,3gp,3g2,mj2, from 'C:\\Users\\Peter\\Desktop\\stuff\\MIUN\\quantitative_research\\video_compression\\videos\\BVI-HD\\BVI-HD_CDVL_videos\\ORIG\\PlasmaAveragePan_1920x1080_60fps.mp4':\n  Metadata:\n    major_brand     : isom\n    minor_version   : 512\n    compatible_brands: isomiso2avc1mp41\n    encoder         : Lavf54.28.101\n  Duration: 00:00:05.00, start: 0.000000, bitrate: 73730 kb/s\n  Stream #0:0[0x1](und): Video: h264 (High 4:4:4 Predictive) (avc1 / 0x31637661), yuv420p(progressive), 1920x1080, 73727 kb/s, 60 fps, 60 tbr, 60 tbn (default)\n    Metadata:\n      handler_name    : VideoHandler\n      vendor_id       : [0][0][0][0]\n[out#0/matroska @ 0000021e0c617900] Codec AVOption b:a (set bitrate (in bits/s)) has not been used for any stream. The most likely reason is either wrong type (e.g. a video option with no video streams) or that it is a private option of some decoder which was not actually used for any stream.\nStream mapping:\n  Stream #0:0 -> #0:0 (h264 (native) -> av1 (libsvtav1))\nPress [q] to stop, [?] for help\nSvt[info]: -------------------------------------------\nSvt[info]: SVT [version]:\tSVT-AV1 Encoder Lib v3.1.0-19-g6ecfe8ec\nSvt[info]: SVT [build]  :\tGCC 15.2.0\t 64 bit\nSvt[info]: LIB Build date: Aug 17 2025 11:37:13\nSvt[info]: -------------------------------------------\nSvt[info]: Level of Parallelism: 5\nSvt[info]: Number of PPCS 93\nSvt[info]: [asm level on system : up to avx2]\nSvt[info]: [asm level selected : up to avx2]\nSvt[info]: -------------------------------------------\nSvt[info]: SVT [config]: main profile\ttier (auto)\tlevel (auto)\nSvt[info]: SVT [config]: width / height / fps numerator / fps denominator \t\t: 1920 / 1080 / 60 / 1\nSvt[info]: SVT [config]: bit-depth / color format \t\t\t\t\t: 8 / YUV420\nSvt[info]: SVT [config]: preset / tune / pred struct \t\t\t\t\t: 4 / PSNR / random access\nSvt[info]: SVT [config]: gop size / mini-gop size / key-frame type \t\t\t: 321 / 16 / key frame\nSvt[info]: SVT [config]: BRC mode / target bitrate (kbps)\t\t\t\t: VBR / 2500 \nSvt[info]: SVT [config]: AQ mode / Variance Boost \t\t\t\t\t: 2 / 0\nSvt[info]: SVT [config]: sharpness / luminance-based QP bias \t\t\t\t: 0 / 0\nSvt[info]: SVT [config]: QP scale compress strength \t\t\t\t\t: 0\nSvt[info]: -------------------------------------------\nOutput #0, matroska, to 'C:\\Users\\Peter\\Desktop\\stuff\\MIUN\\quantitative_research\\video_compression\\compressed_videos\\BVI-HD\\av1\\2.5\\PlasmaAveragePan_1920x1080_60fps_av1.mkv':\n  Metadata:\n    major_brand     : isom\n    minor_version   : 512\n    compatible_brands: isomiso2avc1mp41\n    encoder         : Lavf62.3.100\n  Stream #0:0(und): Video: av1 (AV01 / 0x31305641), yuv420p(tv, progressive), 1920x1080, q=2-31, 2500 kb/s, 60 fps, 1k tbn (default)\n    Metadata:\n      encoder         : Lavc62.11.100 libsvtav1\n      handler_name    : VideoHandler\n      vendor_id       : [0][0][0][0]\n    Side data:\n      cpb: bitrate max/min/avg: 0/0/2500000 buffer size: 2500000 vbv_delay: N/A\nframe=    0 fps=0.0 q=0.0 size=       0KiB time=N/A bitrate=N/A speed=N/A elapsed=0:00:01.04    \nframe=    0 fps=0.0 q=0.0 size=       0KiB time=N/A bitrate=N/A speed=N/A elapsed=0:00:01.56    \nframe=    1 fps=0.5 q=17.0 size=       1KiB time=00:00:00.00 bitrate=N/A speed=   0x elapsed=0:00:02.11    \nframe=    1 fps=0.4 q=17.0 size=       1KiB time=00:00:00.00 bitrate=N/A speed=   0x elapsed=0:00:02.64    \nframe=    1 fps=0.3 q=17.0 size=       1KiB time=00:00:00.00 bitrate=N/A speed=   0x elapsed=0:00:03.17    \nframe=    2 fps=0.5 q=32.0 size=       1KiB time=00:00:00.01 bitrate= 341.8kbits/s speed=0.00449x elapsed=0:00:03.71    \nframe=    4 fps=0.9 q=32.0 size=       1KiB time=00:00:00.05 bitrate= 113.9kbits/s speed=0.0118x elapsed=0:00:04.25    \nframe=    7 fps=1.5 q=28.0 size=       1KiB time=00:00:00.10 bitrate=  57.0kbits/s speed=0.0209x elapsed=0:00:04.77    \nframe=   10 fps=1.9 q=32.0 size=       1KiB time=00:00:00.15 bitrate=  38.0kbits/s speed=0.0283x elapsed=0:00:05.30    \nframe=   13 fps=2.2 q=25.0 size=       1KiB time=00:00:00.20 bitrate=  28.5kbits/s speed=0.0344x elapsed=0:00:05.81    \nframe=   16 fps=2.5 q=31.0 size=       1KiB time=00:00:00.25 bitrate=  22.8kbits/s speed=0.0395x elapsed=0:00:06.33    \nframe=   19 fps=2.8 q=28.0 size=       1KiB time=00:00:00.30 bitrate=  19.0kbits/s speed=0.0437x elapsed=0:00:06.86    \nframe=   22 fps=3.0 q=32.0 size=       1KiB time=00:00:00.35 bitrate=  16.3kbits/s speed=0.0473x elapsed=0:00:07.39    \nframe=   23 fps=2.9 q=29.0 size=       1KiB time=00:00:00.36 bitrate=  15.5kbits/s speed=0.0463x elapsed=0:00:07.92    \nframe=   27 fps=3.2 q=29.0 size=       1KiB time=00:00:00.43 bitrate=  13.1kbits/s speed=0.0512x elapsed=0:00:08.46    \nframe=   31 fps=3.4 q=29.0 size=       1KiB time=00:00:00.50 bitrate=  11.4kbits/s speed=0.0554x elapsed=0:00:09.01    \nframe=   34 fps=3.6 q=32.0 size=       1KiB time=00:00:00.55 bitrate=  10.4kbits/s speed=0.0575x elapsed=0:00:09.56    \nframe=   36 fps=3.6 q=32.0 size=       1KiB time=00:00:00.58 bitrate=   9.8kbits/s speed=0.0578x elapsed=0:00:10.10    \nframe=   38 fps=3.6 q=32.0 size=       1KiB time=00:00:00.61 bitrate=   9.2kbits/s speed=0.0581x elapsed=0:00:10.60    \nframe=   41 fps=3.7 q=25.0 size=       1KiB time=00:00:00.66 bitrate=   8.5kbits/s speed=0.0599x elapsed=0:00:11.12    \nframe=   45 fps=3.9 q=27.0 size=       1KiB time=00:00:00.73 bitrate=   7.8kbits/s speed=0.0629x elapsed=0:00:11.65    \nframe=   49 fps=4.0 q=18.0 size=       1KiB time=00:00:00.80 bitrate=   7.1kbits/s speed=0.0656x elapsed=0:00:12.19    \nframe=   52 fps=4.1 q=33.0 size=       1KiB time=00:00:00.85 bitrate=   6.7kbits/s speed=0.0667x elapsed=0:00:12.73    \nframe=   54 fps=4.1 q=33.0 size=       1KiB time=00:00:00.88 bitrate=   6.4kbits/s speed=0.0666x elapsed=0:00:13.26    \nframe=   56 fps=4.1 q=33.0 size=       1KiB time=00:00:00.91 bitrate=   6.2kbits/s speed=0.0665x elapsed=0:00:13.78    \nframe=   61 fps=4.3 q=28.0 size=       1KiB time=00:00:01.00 bitrate=   5.7kbits/s speed=0.0698x elapsed=0:00:14.33    \nframe=   65 fps=4.4 q=21.0 size=       1KiB time=00:00:01.06 bitrate=   5.3kbits/s speed=0.0718x elapsed=0:00:14.85    \nframe=   67 fps=4.4 q=32.0 size=       1KiB time=00:00:01.10 bitrate=   5.2kbits/s speed=0.0715x elapsed=0:00:15.39    \nframe=   70 fps=4.4 q=35.0 size=       1KiB time=00:00:01.15 bitrate=   5.0kbits/s speed=0.0723x elapsed=0:00:15.91    \nframe=   71 fps=4.3 q=32.0 size=       1KiB time=00:00:01.16 bitrate=   4.9kbits/s speed=0.071x elapsed=0:00:16.42    \nframe=   76 fps=4.5 q=36.0 size=       1KiB time=00:00:01.25 bitrate=   4.6kbits/s speed=0.0737x elapsed=0:00:16.95    \nframe=   78 fps=4.5 q=36.0 size=       1KiB time=00:00:01.28 bitrate=   4.4kbits/s speed=0.0733x elapsed=0:00:17.50    \nframe=   82 fps=4.5 q=36.0 size=       1KiB time=00:00:01.35 bitrate=   4.2kbits/s speed=0.0748x elapsed=0:00:18.03    \nframe=   84 fps=4.5 q=36.0 size=       1KiB time=00:00:01.38 bitrate=   4.1kbits/s speed=0.0746x elapsed=0:00:18.55    \nframe=   87 fps=4.6 q=33.0 size=       1KiB time=00:00:01.43 bitrate=   4.0kbits/s speed=0.0751x elapsed=0:00:19.08    \nframe=   90 fps=4.6 q=36.0 size=       1KiB time=00:00:01.48 bitrate=   3.8kbits/s speed=0.0755x elapsed=0:00:19.64    \nframe=   94 fps=4.7 q=36.0 size=       1KiB time=00:00:01.55 bitrate=   3.7kbits/s speed=0.0768x elapsed=0:00:20.17    \nframe=   98 fps=4.7 q=36.0 size=       1KiB time=00:00:01.61 bitrate=   3.5kbits/s speed=0.0781x elapsed=0:00:20.70    \nframe=  101 fps=4.8 q=31.0 size=       1KiB time=00:00:01.66 bitrate=   3.4kbits/s speed=0.0785x elapsed=0:00:21.22    \nframe=  103 fps=4.7 q=34.0 size=       1KiB time=00:00:01.70 bitrate=   3.4kbits/s speed=0.0782x elapsed=0:00:21.75    \nframe=  108 fps=4.8 q=37.0 size=       1KiB time=00:00:01.78 bitrate=   3.2kbits/s speed=0.08x elapsed=0:00:22.30    \nframe=  111 fps=4.9 q=34.0 size=       1KiB time=00:00:01.81 bitrate=   3.1kbits/s speed=0.0796x elapsed=0:00:22.83    \nframe=  114 fps=4.9 q=37.0 size=       1KiB time=00:00:01.88 bitrate=   3.0kbits/s speed=0.0805x elapsed=0:00:23.40    \nframe=  117 fps=4.9 q=31.0 size=       1KiB time=00:00:01.93 bitrate=   2.9kbits/s speed=0.0807x elapsed=0:00:23.94    \nframe=  118 fps=4.8 q=37.0 size=       1KiB time=00:00:01.95 bitrate=   2.9kbits/s speed=0.0797x elapsed=0:00:24.47    \nframe=  121 fps=4.8 q=31.0 size=       1KiB time=00:00:02.00 bitrate=   2.8kbits/s speed=0.0799x elapsed=0:00:25.01    \nframe=  123 fps=4.8 q=34.0 size=       1KiB time=00:00:02.03 bitrate=   2.8kbits/s speed=0.0796x elapsed=0:00:25.53    \nframe=  128 fps=4.9 q=37.0 size=       1KiB time=00:00:02.11 bitrate=   2.7kbits/s speed=0.0813x elapsed=0:00:26.04    \nframe=  131 fps=4.9 q=35.0 size=       1KiB time=00:00:02.16 bitrate=   2.6kbits/s speed=0.0816x elapsed=0:00:26.56    \nframe=  135 fps=5.0 q=35.0 size=       1KiB time=00:00:02.23 bitrate=   2.6kbits/s speed=0.0825x elapsed=0:00:27.08    \nframe=  139 fps=5.0 q=35.0 size=       1KiB time=00:00:02.30 bitrate=   2.5kbits/s speed=0.0833x elapsed=0:00:27.60    \nframe=  144 fps=5.1 q=37.0 size=       1KiB time=00:00:02.38 bitrate=   2.4kbits/s speed=0.0847x elapsed=0:00:28.12    \nframe=  147 fps=5.1 q=35.0 size=       1KiB time=00:00:02.43 bitrate=   2.3kbits/s speed=0.0849x elapsed=0:00:28.64    \nframe=  151 fps=5.2 q=35.0 size=       1KiB time=00:00:02.50 bitrate=   2.3kbits/s speed=0.0857x elapsed=0:00:29.16    \nframe=  154 fps=5.2 q=37.0 size=       1KiB time=00:00:02.55 bitrate=   2.2kbits/s speed=0.0859x elapsed=0:00:29.69    \nframe=  160 fps=5.3 q=37.0 size=       1KiB time=00:00:02.65 bitrate=   2.1kbits/s speed=0.0877x elapsed=0:00:30.21    \nframe=  163 fps=5.3 q=34.0 size=       1KiB time=00:00:02.70 bitrate=   2.1kbits/s speed=0.0879x elapsed=0:00:30.72    \nframe=  166 fps=5.3 q=37.0 size=       1KiB time=00:00:02.75 bitrate=   2.1kbits/s speed=0.088x elapsed=0:00:31.23    \nframe=  170 fps=5.4 q=37.0 size=       1KiB time=00:00:02.81 bitrate=   2.0kbits/s speed=0.0887x elapsed=0:00:31.74    \nframe=  176 fps=5.5 q=37.0 size=       1KiB time=00:00:02.91 bitrate=   2.0kbits/s speed=0.0904x elapsed=0:00:32.26    \nframe=  180 fps=5.5 q=37.0 size=       1KiB time=00:00:02.98 bitrate=   1.9kbits/s speed=0.091x elapsed=0:00:32.78    \nframe=  183 fps=5.5 q=34.0 size=       1KiB time=00:00:03.03 bitrate=   1.9kbits/s speed=0.0911x elapsed=0:00:33.29    \nframe=  189 fps=5.6 q=31.0 size=       1KiB time=00:00:03.13 bitrate=   1.8kbits/s speed=0.0926x elapsed=0:00:33.83    \nframe=  194 fps=5.6 q=37.0 size=       1KiB time=00:00:03.21 bitrate=   1.8kbits/s speed=0.0936x elapsed=0:00:34.35    \nframe=  198 fps=5.7 q=37.0 size=       1KiB time=00:00:03.28 bitrate=   1.7kbits/s speed=0.0942x elapsed=0:00:34.86    \nframe=  202 fps=5.7 q=37.0 size=       1KiB time=00:00:03.35 bitrate=   1.7kbits/s speed=0.0947x elapsed=0:00:35.38    \nframe=  207 fps=5.8 q=35.0 size=       1KiB time=00:00:03.43 bitrate=   1.7kbits/s speed=0.0956x elapsed=0:00:35.89    \nframe=  213 fps=5.9 q=32.0 size=       1KiB time=00:00:03.53 bitrate=   1.6kbits/s speed=0.097x elapsed=0:00:36.40    \nframe=  217 fps=5.9 q=32.0 size=       1KiB time=00:00:03.60 bitrate=   1.6kbits/s speed=0.0975x elapsed=0:00:36.92    \nframe=  221 fps=5.9 q=32.0 size=       1KiB time=00:00:03.66 bitrate=   1.6kbits/s speed=0.0979x elapsed=0:00:37.44    \nframe=  227 fps=6.0 q=35.0 size=       1KiB time=00:00:03.73 bitrate=   1.5kbits/s speed=0.0983x elapsed=0:00:37.97    \nframe=  233 fps=6.1 q=32.0 size=       1KiB time=00:00:03.86 bitrate=   1.5kbits/s speed= 0.1x elapsed=0:00:38.49    \nframe=  235 fps=6.0 q=35.0 size=       1KiB time=00:00:03.90 bitrate=   1.5kbits/s speed= 0.1x elapsed=0:00:38.99    \nframe=  241 fps=6.1 q=27.0 size=       1KiB time=00:00:04.00 bitrate=   1.4kbits/s speed=0.101x elapsed=0:00:39.52    \nframe=  245 fps=6.1 q=32.0 size=       1KiB time=00:00:04.06 bitrate=   1.4kbits/s speed=0.102x elapsed=0:00:40.03    \nframe=  249 fps=6.1 q=32.0 size=       1KiB time=00:00:04.13 bitrate=   1.4kbits/s speed=0.102x elapsed=0:00:40.54    \nframe=  253 fps=6.2 q=32.0 size=       1KiB time=00:00:04.20 bitrate=   1.4kbits/s speed=0.102x elapsed=0:00:41.08    \nframe=  257 fps=6.2 q=26.0 size=       1KiB time=00:00:04.26 bitrate=   1.3kbits/s speed=0.103x elapsed=0:00:41.59    \nframe=  261 fps=6.2 q=33.0 size=       1KiB time=00:00:04.33 bitrate=   1.3kbits/s speed=0.103x elapsed=0:00:42.12    \nframe=  265 fps=6.2 q=32.0 size=       1KiB time=00:00:04.40 bitrate=   1.3kbits/s speed=0.103x elapsed=0:00:42.66    \nframe=  269 fps=6.2 q=35.0 size=       1KiB time=00:00:04.46 bitrate=   1.3kbits/s speed=0.103x elapsed=0:00:43.16    \nframe=  277 fps=6.3 q=38.0 size=       1KiB time=00:00:04.60 bitrate=   1.2kbits/s speed=0.105x elapsed=0:00:43.69    \nframe=  281 fps=6.4 q=35.0 size=       1KiB time=00:00:04.66 bitrate=   1.2kbits/s speed=0.106x elapsed=0:00:44.20    \nframe=  285 fps=6.4 q=38.0 size=       1KiB time=00:00:04.73 bitrate=   1.2kbits/s speed=0.106x elapsed=0:00:44.72    \n[out#0/matroska @ 0000021e0c617900] video:1723KiB audio:0KiB subtitle:0KiB other streams:0KiB global headers:0KiB muxing overhead: 0.121427%\nframe=  300 fps=6.6 q=38.0 Lsize=    1725KiB time=00:00:04.98 bitrate=2835.3kbits/s speed=0.11x elapsed=0:00:45.18    \n",
  "seconds": 45.53974270820618,
  "probe_out": {}
}